<?xml version="1.0" encoding="UTF-8"?>
<svg width="512" height="512" viewBox="0 0 512 512" fill="none" xmlns="http://www.w3.org/2000/svg">
  <defs>
    <linearGradient id="g1" x1="64" y1="64" x2="448" y2="448" gradientUnits="userSpaceOnUse">
      <stop stop-color="#6366F1"/>
      <stop offset="0.5" stop-color="#A855F7"/>
      <stop offset="1" stop-color="#06B6D4"/>
    </linearGradient>
    <linearGradient id="g2" x1="160" y1="120" x2="360" y2="392" gradientUnits="userSpaceOnUse">
      <stop stop-color="white" stop-opacity="0.95"/>
      <stop offset="1" stop-color="white" stop-opacity="0.6"/>
    </linearGradient>
    <filter id="shadow" x="-20%" y="-20%" width="140%" height="140%" color-interpolation-filters="sRGB">
      <feDropShadow dx="0" dy="8" stdDeviation="12" flood-opacity="0.25" />
    </filter>
  </defs>

  <!-- Rounded tile background -->
  <rect x="40" y="40" width="432" height="432" rx="96" fill="url(#g1)" filter="url(#shadow)"/>

  <!-- Subtle inner shine -->
  <path d="M96 208c0-61 49-110 110-110h100c16 0 30 13 30 30s-14 30-30 30H206c-27 0-50 22-50 50 0 16-13 30-30 30s-30-14-30-30Z" fill="url(#g2)"/>

  <!-- Monogram FM -->
  <g fill="#0B1220">
    <path d="M150 340V188h112v36h-72v28h60v36h-60v52h-40Z"/>
    <path d="M258 340V188h42l38 62 38-62h42v152h-40v-86l-40 64h-2l-40-64v86h-38Z"/>
  </g>
</svg>
